<svg xmlns="http://www.w3.org/2000/svg" version="1.1" xmlns:xlink="http://www.w3.org/1999/xlink" width="200px" height="200px"><svg width="200px" height="200px" viewBox="0 0 200 200" version="1.1" xmlns="http://www.w3.org/2000/svg" xmlns:xlink="http://www.w3.org/1999/xlink">
    <!-- Generator: Sketch 52.2 (67145) - http://www.bohemiancoding.com/sketch -->
    <title>svgpack-isologo</title>
    <desc>Created with Sketch.</desc>
    <g id="SvgjsG1024" stroke="none" stroke-width="1" fill="none" fill-rule="evenodd">
        <g id="SvgjsG1023" transform="translate(10.000000, 16.000000)" fill="#EF1625">
            <g transform="translate(-6.315789, -6.301887)">
                <g id="SvgjsG1022" transform="translate(20.259451, 117.635220)">
                    <path d="M10.4950141,17.7498227 C10.4962817,17.3639515 10.4379718,16.9831409 10.3213521,16.6086561 C10.2047324,16.2329061 10.0031831,15.8520955 9.71923944,15.4674894 C9.43402817,15.0828833 9.06388732,14.6932167 8.60374648,14.2997545 C8.14487324,13.9062924 7.5731831,13.493853 6.88867606,13.0624364 C6.05712676,12.5310727 5.26233803,11.9478379 4.50430986,11.313997 C3.7475493,10.6788909 3.07952113,9.99570909 2.50276056,9.26065606 C1.92726761,8.52813333 1.46585915,7.74373939 1.12233803,6.90747424 C0.778816901,6.07247424 0.608957746,5.18560303 0.612760563,4.24559545 C0.615295775,3.33595152 0.788957746,2.56673939 1.13374648,1.93795909 C1.47980282,1.30791364 1.95515493,0.830951515 2.56360563,0.504542424 C3.16952113,0.179398485 3.88571831,0.0111333333 4.71219718,0.00101212121 C5.53614085,-0.0103742424 6.43107042,0.141443939 7.39698592,0.457731818 C8.39712676,0.786671212 9.30980282,1.24971667 10.1375493,1.84813333 C10.9665634,2.44528485 11.6776901,3.13605758 12.2709296,3.92171667 C12.8654366,4.70484545 13.3281127,5.55755758 13.6576901,6.47732273 C13.9872676,7.39708788 14.1520563,8.34215606 14.1482535,9.31126212 L10.5431831,8.12834545 C10.5279718,7.63873182 10.4519155,7.16809545 10.3175493,6.71770152 C10.1831831,6.26730758 9.98290141,5.85360303 9.71670423,5.47405758 C9.45050704,5.09451212 9.11712676,4.75671667 8.71909859,4.46320152 C8.32107042,4.16968636 7.85332394,3.93436818 7.31966197,3.75851212 C6.82783099,3.59657273 6.39177465,3.52192879 6.00769014,3.5295197 C5.62740845,3.53837576 5.30416901,3.62061061 5.03923944,3.77622424 C4.77557746,3.93183788 4.57656338,4.15323939 4.43839437,4.43916364 C4.30022535,4.72635303 4.23304225,5.06288333 4.23050704,5.44748939 C4.22923944,5.85360303 4.31670423,6.2483303 4.49670423,6.63420152 C4.67416901,7.02007273 4.93402817,7.39835303 5.27628169,7.77283788 C5.61726761,8.14732273 6.03050704,8.52307273 6.516,8.90008788 C7.00276056,9.27836818 7.5516338,9.66044394 8.16515493,10.0501106 C9.04107042,10.6244894 9.84726761,11.239353 10.5824789,11.8972318 C11.3164225,12.5551106 11.9489577,13.2534742 12.4775493,13.9961182 C13.0048732,14.7400273 13.4155775,15.5218909 13.7071268,16.3455045 C13.9986761,17.1691182 14.1431831,18.0256258 14.1393803,18.9150273 C14.1368451,19.8638909 13.9631831,20.6520803 13.6234648,21.2770652 C13.2824789,21.9033152 12.8134648,22.3726864 12.2138873,22.6851788 C11.6168451,23.0002015 10.9044507,23.1532848 10.0792394,23.1444288 C9.25402817,23.1355727 8.35402817,22.971103 7.38050704,22.6522848 C6.77585915,22.4536561 6.17247887,22.1943 5.57290141,21.8729515 C4.97205634,21.5528682 4.39783099,21.1733227 3.85149296,20.7368455 C3.30388732,20.3003682 2.79430986,19.8107545 2.32149296,19.2692697 C1.84994366,18.7277848 1.44177465,18.14455 1.09571831,17.5157697 C0.752197183,16.8882545 0.482197183,16.2151939 0.286985915,15.4991182 C0.0930422535,14.7817773 -0.00329577465,14.027747 0.000507042254,13.2370273 L3.63092958,14.4275348 C3.64487324,15.0866788 3.74501408,15.6775045 3.9275493,16.2025424 C4.11008451,16.7275803 4.36614085,17.1944212 4.69191549,17.5967394 C5.02022535,18.0015879 5.4144507,18.3495045 5.87332394,18.6379591 C6.33473239,18.9289439 6.84177465,19.162997 7.3931831,19.3439136 C7.88374648,19.505853 8.32107042,19.5842924 8.70261972,19.580497 C9.08543662,19.5779667 9.40740845,19.505853 9.67233803,19.3641561 C9.93726761,19.2237242 10.1375493,19.0149742 10.2807887,18.7404364 C10.421493,18.4646333 10.4937465,18.1356939 10.4950141,17.7498227" id="SvgjsPath1021"></path>
                    <polygon id="SvgjsPolygon1020" points="23.0607887 21.4711394 26.7368451 7.10154848 30.8147324 8.43881364 24.9330423 28.1296318 21.1695211 26.8935788 15.461493 3.40224545 19.5393803 4.73951061"></polygon>
                    <path d="M46.0461549,32.5324856 C45.8078451,32.7804553 45.4820704,33.0056523 45.068831,33.2055462 C44.6543239,33.4054402 44.1650282,33.5509326 43.5971408,33.6369629 C43.0317887,33.7229932 42.3967183,33.7343795 41.6957324,33.6723871 C40.9922113,33.6116598 40.2367183,33.4471902 39.4305211,33.1827735 C38.3429155,32.8247356 37.3605211,32.2870462 36.4858732,31.5621144 C35.6112254,30.840978 34.863338,29.9667583 34.2422113,28.9407205 C33.6223521,27.9159477 33.147,26.7532735 32.8136197,25.4501674 C32.4802394,24.1483265 32.3154507,22.741478 32.3217887,21.2270917 L32.3331972,18.290675 C32.3382676,16.7788189 32.5208028,15.4858341 32.8808028,14.4104553 C33.2408028,13.3363417 33.735169,12.4848947 34.365169,11.861175 C34.9964366,11.2361902 35.7341831,10.8452583 36.5822113,10.6871144 C37.431507,10.5302356 38.3505211,10.6137356 39.3417887,10.9401447 C40.4205211,11.293122 41.3598169,11.7549023 42.1634789,12.3254856 C42.963338,12.8960689 43.6389718,13.5602735 44.1903803,14.3193644 C44.7405211,15.0797205 45.1689718,15.9261068 45.4782676,16.8585235 C45.7862958,17.7922053 45.9865775,18.7929402 46.0791127,19.8619932 L42.4740423,18.6790765 C42.3548873,17.5328492 42.063338,16.6016977 41.5955915,15.8894174 C41.1291127,15.1771371 40.4027746,14.658425 39.4203803,14.3358114 C38.9462958,14.1801977 38.5077042,14.1726068 38.103338,14.3130386 C37.6989718,14.4522053 37.3478451,14.7355992 37.0461549,15.1619553 C36.7482676,15.5870462 36.5074225,16.1601598 36.3286901,16.8775008 C36.1512254,17.5961068 36.0599577,18.4652659 36.0561549,19.4837129 L36.0447465,22.449228 C36.0460141,24.469675 36.338831,26.1118417 36.9231972,27.3782583 C37.5062958,28.644675 38.4037606,29.479675 39.6143239,29.8870538 C39.903338,29.980675 40.1885493,30.0502583 40.4699577,30.0932735 C40.7513662,30.1350235 41.0137606,30.1527356 41.2596761,30.1438795 C41.5055915,30.1362886 41.7236197,30.105925 41.912493,30.0540538 C42.1000986,30.0021826 42.243338,29.9275386 42.3422113,29.8313871 L42.368831,25.9195386 L39.1985493,24.8795841 L39.2099577,21.7647811 L46.0639014,24.0142205 L46.0461549,32.5324856 Z" id="SvgjsPath1019"></path>
                </g>
                <path d="M6.65381764,67.0902992 L0.315789474,65.0867994 L0.315789474,24.369798 L100.181025,0.125283162 L192.315789,24.4666802 L192.315789,66.5799277 L184.710156,68.5834275 L184.710156,149.696353 L100.220962,179.618348 L6.65381764,149.843103 L6.65381764,67.0902992 Z M100.056187,12.4784904 L12.3157895,33.7794302 L12.3157895,56.3200045 L18.6538176,58.3235044 L18.6538176,141.094004 L100.016251,166.985426 L172.710156,141.240754 L172.710156,59.3606791 L180.315789,57.3571792 L180.315789,33.682548 L100.056187,12.4784904 Z" id="SvgjsPath1018" fill-rule="nonzero"></path>
                <polygon id="SvgjsPolygon1017" fill-rule="nonzero" points="185.549909 54.6717104 187.08167 59.1441844 100.149783 88.7862451 5.60621107 59.1626009 7.02536788 54.6532938 100.08743 83.8127317"></polygon>
                <polygon id="SvgjsPolygon1016" fill-rule="nonzero" points="100.088933 54.4336562 185.586566 26.8262098 187.045013 31.3230183 100.148279 59.3822386 5.64069506 31.3397855 6.99088389 26.8094426"></polygon>
                <polygon id="SvgjsPolygon1015" fill-rule="nonzero" points="102.487027 173.301887 97.7501853 173.301887 97.7501853 56.9079474 102.487027 56.9079474"></polygon>
            </g>
        </g>
    </g>
</svg><style>@media (prefers-color-scheme: light) { :root { filter: none; } }
@media (prefers-color-scheme: dark) { :root { filter: none; } }
</style></svg>