<svg xmlns="http://www.w3.org/2000/svg" viewBox="0 0 440 90" width="440" height="90">
  <defs>
    <linearGradient id="animated-gradient" x1="0%" y1="0%" x2="100%" y2="100%">
      <stop offset="0%" stop-color="#D929CC">
        <animate attributeName="stop-color" values="#D929CC; #EF1625; #D929CC" dur="8s" repeatCount="indefinite" />
      </stop>
      <stop offset="100%" stop-color="#EF1625">
        <animate attributeName="stop-color" values="#EF1625; #FB7C13; #EF1625" dur="8s" repeatCount="indefinite" />
      </stop>
    </linearGradient>
  </defs>
      <g id="svgpack-imagotype" stroke="none" stroke-width="1" fill="none" fill-rule="evenodd">
        <g id="Group" transform="translate(4.000000, 7.000000)" fill="url(#animated-gradient)">
            <path d="M147.785967,51.026738 C147.785967,50.0534711 147.618003,49.1426067 147.282069,48.2941176 C146.946136,47.4456286 146.373813,46.6533014 145.565084,45.9171123 C144.756355,45.1809232 143.698802,44.5071332 142.392393,43.8957219 C141.085984,43.2843107 139.46233,42.7165802 137.52138,42.1925134 C135.157402,41.5436688 132.899215,40.7326252 130.746752,39.7593583 C128.594288,38.7860914 126.696913,37.6131976 125.054571,36.2406417 C123.412229,34.8680858 122.099619,33.2709539 121.116702,31.4491979 C120.133785,29.6274419 119.642334,27.5312061 119.642334,25.1604278 C119.642334,22.8645161 120.127564,20.780758 121.098039,18.9090909 C122.068514,17.0374238 123.412229,15.4402918 125.129223,14.1176471 C126.846217,12.7950023 128.87423,11.7780784 131.213324,11.0668449 C133.552417,10.3556114 136.090545,10 138.827782,10 C141.664555,10 144.25867,10.4117606 146.610206,11.2352941 C148.961741,12.0588276 150.983534,13.2130051 152.675644,14.697861 C154.367754,16.1827169 155.686585,17.9482964 156.632176,19.9946524 C157.577767,22.0410084 158.050555,24.2869753 158.050555,26.7326203 L147.823293,26.7326203 C147.773525,25.5097978 147.555794,24.3868144 147.170092,23.3636364 C146.784391,22.3404583 146.212068,21.460788 145.453107,20.7245989 C144.694145,19.9884099 143.748569,19.4144406 142.616348,19.0026738 C141.484127,18.590907 140.159075,18.3850267 138.641153,18.3850267 C137.24765,18.3850267 136.009691,18.5534743 134.927238,18.8903743 C133.844786,19.2272744 132.930313,19.701423 132.183794,20.3128342 C131.437275,20.9242455 130.871173,21.6479459 130.485471,22.4839572 C130.09977,23.3199685 129.906922,24.2245941 129.906922,25.197861 C129.906922,26.221039 130.161979,27.1443809 130.6721,27.9679144 C131.182222,28.791448 131.922509,29.5338648 132.892984,30.1951872 C133.863459,30.8565095 135.039209,31.4616728 136.420269,32.0106952 C137.80133,32.5597175 139.362776,33.0712989 141.104654,33.5454545 C143.593051,34.2691658 145.882342,35.155075 147.972596,36.2032086 C150.06285,37.2513421 151.86069,38.4928627 153.366171,39.9278075 C154.871651,41.3627523 156.04118,42.997317 156.874793,44.8315508 C157.708406,46.6657846 158.125207,48.7058711 158.125207,50.9518717 C158.125207,53.3476056 157.646197,55.4750353 156.688164,57.3342246 C155.730131,59.1934139 154.40508,60.7655907 152.71297,62.0508021 C151.020859,63.3360136 149.005288,64.3092659 146.666194,64.9705882 C144.327101,65.6319106 141.776532,65.9625668 139.014411,65.9625668 C137.297416,65.9625668 135.586669,65.8065969 133.882117,65.4946524 C132.177565,65.1827079 130.547689,64.7023205 128.99244,64.0534759 C127.437192,63.4046313 125.987722,62.5935878 124.643988,61.6203209 C123.300253,60.647054 122.136945,59.5115929 121.154028,58.2139037 C120.171111,56.9162145 119.399719,55.4438585 118.83983,53.7967914 C118.279941,52.1497244 118,50.3279957 118,48.3315508 L128.301914,48.3315508 C128.351681,49.9786179 128.637843,51.3885859 129.160406,52.5614973 C129.68297,53.7344087 130.410815,54.6951834 131.343964,55.4438503 C132.277113,56.1925171 133.396875,56.7415312 134.703284,57.0909091 C136.009692,57.440287 137.44672,57.6149733 139.014411,57.6149733 C140.407913,57.6149733 141.645872,57.4527645 142.728325,57.1283422 C143.810778,56.8039199 144.72525,56.3547266 145.471769,55.7807487 C146.218289,55.2067707 146.790611,54.5142643 147.188755,53.7032086 C147.586899,52.8921528 147.785967,52.0000049 147.785967,51.026738 Z M183.432081,50.0160428 L193.696669,10.7486631 L205.267659,10.7486631 L188.806993,65.2513369 L178.131821,65.2513369 L161.708481,10.7486631 L173.279471,10.7486631 L183.432081,50.0160428 Z M248.677534,58.8877005 C248.005666,59.7112341 247.084973,60.5472328 245.915426,61.3957219 C244.74588,62.244211 243.358619,63.011583 241.753603,63.697861 C240.148586,64.3841389 238.350746,64.9393918 236.360028,65.3636364 C234.36931,65.7878809 232.229321,66 229.939995,66 C226.854383,66 224.067419,65.4509859 221.579022,64.3529412 C219.090625,63.2548965 216.963077,61.6702421 215.196315,59.5989305 C213.429553,57.5276189 212.067175,54.9884286 211.109142,51.9812834 C210.151109,48.9741383 209.6721,45.5615164 209.6721,41.7433155 L209.6721,34.3315508 C209.6721,30.5133499 210.175993,27.100728 211.183794,24.0935829 C212.191595,21.0864377 213.585077,18.5347698 215.364281,16.4385027 C217.143485,14.3422355 219.233707,12.7451035 221.635011,11.6470588 C224.036314,10.5490141 226.642871,10 229.45476,10 C232.515489,10 235.184255,10.3868054 237.461139,11.1604278 C239.738022,11.9340502 241.66028,13.0507948 243.227971,14.5106952 C244.795661,15.9705955 246.021178,17.7486526 246.904559,19.8449198 C247.78794,21.941187 248.366484,24.2994521 248.640208,26.9197861 L238.412946,26.9197861 C238.06457,24.1247632 237.224749,22.0222887 235.893456,20.6122995 C234.562164,19.2023102 232.503046,18.4973262 229.716041,18.4973262 C228.372306,18.4973262 227.128126,18.84046 225.983463,19.526738 C224.8388,20.2130159 223.843456,21.2174622 222.997401,22.540107 C222.151346,23.8627517 221.479489,25.5035553 220.98181,27.4625668 C220.48413,29.4215784 220.235294,31.6862617 220.235294,34.2566845 L220.235294,41.7433155 C220.260178,46.8342501 221.106221,50.733498 222.773447,53.4411765 C224.440673,56.1488549 226.991242,57.5151514 230.42523,57.540107 C231.246401,57.540107 232.055118,57.477719 232.851406,57.3529412 C233.647693,57.2281634 234.394201,57.0534771 235.090952,56.828877 C235.787703,56.604277 236.403572,56.3484863 236.938578,56.0614973 C237.473583,55.7745084 237.877942,55.4688073 238.151665,55.144385 L238.188991,45.2620321 L229.19348,45.2620321 L229.19348,37.4010695 L248.640208,37.4010695 L248.677534,58.8877005 Z M264.839594,42.7914439 L264.839594,65.2513369 L260.360501,65.2513369 L260.360501,10.7486631 L277.455705,10.7486631 C279.844567,10.7985742 282.07787,11.1978572 284.155682,11.9465241 C286.233493,12.6951909 288.049996,13.7620252 289.605245,15.1470588 C291.160493,16.5320925 292.38601,18.2103288 293.281833,20.1818182 C294.177656,22.1533075 294.625561,24.3867968 294.625561,26.8823529 C294.625561,29.3779091 294.177656,31.6051595 293.281833,33.5641711 C292.38601,35.5231827 291.160493,37.1827026 289.605245,38.5427807 C288.049996,39.9028589 286.227272,40.9447379 284.137019,41.6684492 C282.046765,42.3921605 279.819683,42.7664883 277.455705,42.7914439 L264.839594,42.7914439 Z M264.839594,39.0106952 L277.455705,39.0106952 C279.247351,38.9857396 280.914552,38.6862774 282.457359,38.1122995 C284.000165,37.5383216 285.34388,36.7397556 286.488542,35.7165775 C287.633205,34.6933995 288.535236,33.4456402 289.194661,31.973262 C289.854086,30.5008839 290.183794,28.8288864 290.183794,26.9572193 C290.183794,25.0855521 289.860307,23.3885994 289.213324,21.8663102 C288.566341,20.3440209 287.670531,19.05259 286.525868,17.9919786 C285.381205,16.9313672 284.037491,16.1078461 282.494685,15.5213904 C280.951878,14.9349347 279.272235,14.616756 277.455705,14.5668449 L264.839594,14.5668449 L264.839594,39.0106952 Z M331.951335,50.0534759 L311.272856,50.0534759 L306.457831,65.2513369 L301.941413,65.2513369 L319.633829,10.7486631 L323.665013,10.7486631 L341.208127,65.2513369 L336.729034,65.2513369 L331.951335,50.0534759 Z M312.541932,46.0481283 L330.682258,46.0481283 L321.649421,17.3743316 L312.541932,46.0481283 Z M385.065911,48.7058824 C384.767303,51.1515274 384.157655,53.4286882 383.236948,55.5374332 C382.316241,57.6461781 381.096944,59.4803844 379.579022,61.040107 C378.0611,62.5998295 376.263259,63.8163949 374.185448,64.6898396 C372.107636,65.5632842 369.774798,66 367.186865,66 C365.021959,66 363.062376,65.6693438 361.308056,65.0080214 C359.553736,64.346699 357.998511,63.4420735 356.642334,62.2941176 C355.286157,61.1461618 354.110407,59.7985817 353.115048,58.2513369 C352.119689,56.7040921 351.298531,55.0383333 350.651547,53.2540107 C350.004564,51.469688 349.525555,49.6167654 349.214505,47.6951872 C348.903455,45.7736089 348.735491,43.8645371 348.710607,41.9679144 L348.710607,34.0695187 C348.735491,32.172896 348.903455,30.2638242 349.214505,28.342246 C349.525555,26.4206678 350.004564,24.5677451 350.651547,22.7834225 C351.298531,20.9990998 352.119689,19.3333411 353.115048,17.7860963 C354.110407,16.2388514 355.286157,14.8850325 356.642334,13.7245989 C357.998511,12.5641653 359.553736,11.653301 361.308056,10.9919786 C363.062376,10.3306562 365.021959,10 367.186865,10 C369.824566,10 372.182287,10.4367158 374.260099,11.3101604 C376.337911,12.1836051 378.135751,13.4001705 379.653674,14.959893 C381.171596,16.5196156 382.384671,18.3600607 383.292936,20.4812834 C384.201201,22.6025061 384.792187,24.910861 385.065911,27.4064171 L380.624144,27.4064171 C380.325536,25.53475 379.846527,23.7754093 379.187101,22.1283422 C378.527676,20.4812752 377.650529,19.0401131 376.555634,17.8048128 C375.460739,16.5695125 374.141909,15.5962602 372.599102,14.8850267 C371.056296,14.1737932 369.252235,13.8181818 367.186865,13.8181818 C365.420103,13.8181818 363.852436,14.1176441 362.483818,14.7165775 C361.115199,15.315511 359.914565,16.114077 358.88188,17.1122995 C357.849196,18.1105219 356.972049,19.2771769 356.250413,20.6122995 C355.528778,21.947422 354.944014,23.3636289 354.496102,24.8609626 C354.048191,26.3582963 353.718483,27.8868015 353.506969,29.4465241 C353.295455,31.0062467 353.1897,32.5222743 353.1897,33.9946524 L353.1897,41.9679144 C353.1897,43.4402926 353.295455,44.962559 353.506969,46.5347594 C353.718483,48.1069597 354.048191,49.6417037 354.496102,51.1390374 C354.944014,52.6363711 355.528778,54.052578 356.250413,55.3877005 C356.972049,56.7228231 357.849196,57.8957169 358.88188,58.9064171 C359.914565,59.9171174 361.115199,60.7219221 362.483818,61.3208556 C363.852436,61.9197891 365.420103,62.2192513 367.186865,62.2192513 C369.277119,62.2192513 371.099843,61.8761175 372.655091,61.1898396 C374.210339,60.5035616 375.52917,59.5490257 376.611623,58.3262032 C377.694076,57.1033807 378.565002,55.6684574 379.224427,54.0213904 C379.883852,52.3743233 380.35042,50.602505 380.624144,48.7058824 L385.065911,48.7058824 Z M408.879754,38.2620321 L401.899835,45.7112299 L401.899835,65.2513369 L397.383416,65.2513369 L397.383416,10.7486631 L401.899835,10.7486631 L401.899835,39.9090909 L408.581148,32.197861 L426.945429,10.7486631 L432.506969,10.7486631 L411.903142,34.9679144 L434,65.2513369 L428.550437,65.2513369 L408.879754,38.2620321 Z" id="SVGPACK"></path>
            <g id="icon">
                <g transform="translate(-2.945646, -2.937853)">
                    <g id="svg" transform="translate(9.448885, 54.839925)">
                        <path d="M4.89481078,8.27472368 C4.89540198,8.09483582 4.86820662,7.91730714 4.81381589,7.74272744 C4.75942516,7.56755795 4.66542379,7.39002928 4.5329942,7.21073121 C4.3999734,7.03143315 4.22734195,6.84977589 4.01273506,6.66634926 C3.79871937,6.48292262 3.53208656,6.29064903 3.21283664,6.08952851 C2.8250071,5.84181407 2.45432247,5.56991799 2.10078274,5.27443006 C1.74783421,4.97835234 1.43626994,4.65986235 1.16727231,4.31719072 C0.898865897,3.97569868 0.6836678,3.610025 0.523451634,3.22016966 C0.363235469,2.83090413 0.284014192,2.41745694 0.285787802,1.97923832 C0.286970209,1.5551748 0.367965097,1.19657867 0.528772466,0.903449923 C0.690171039,0.609731382 0.911872375,0.387378189 1.19565009,0.235210752 C1.47824539,0.0836331108 1.8122754,0.00519020716 2.19774012,0.000471837014 C2.58202244,-0.0048363294 2.99941215,0.0659392227 3.44990927,0.21338829 C3.91636888,0.366735319 4.34203545,0.582600753 4.72809137,0.861574388 C5.1147385,1.13995823 5.4464037,1.46198699 5.72308697,1.82825047 C6.00036144,2.19333436 6.21615074,2.59085705 6.36986367,3.01963893 C6.52357659,3.44842082 6.60043306,3.88899863 6.59865944,4.34078257 L4.91727651,3.78932306 C4.91018207,3.56107191 4.87470986,3.34166769 4.81204228,3.13170022 C4.7493747,2.92173275 4.65596454,2.72886937 4.53181179,2.55193049 C4.40765904,2.37499161 4.2521725,2.21751601 4.06653459,2.08068327 C3.88089667,1.94385054 3.66274255,1.83414843 3.41384585,1.75216675 C3.18445887,1.67667283 2.98108484,1.64187485 2.80195017,1.64541363 C2.6245891,1.6495422 2.47383219,1.68787896 2.35027064,1.7604239 C2.2273003,1.83296884 2.13448134,1.93618319 2.07004015,2.06947714 C2.00559897,2.2033609 1.97426518,2.3602467 1.97308277,2.53954477 C1.97249157,2.72886937 2.01328461,2.91288581 2.09723552,3.09277367 C2.18000402,3.27266153 2.30120075,3.44901061 2.46082571,3.62359031 C2.61985947,3.79817001 2.81259183,3.9733395 3.03902279,4.14909878 C3.26604496,4.32544787 3.5220361,4.50356634 3.80817863,4.68522359 C4.21670029,4.9529911 4.59270576,5.23963208 4.93560382,5.54632614 C5.27791069,5.8530202 5.57292126,6.17858774 5.81945315,6.52479815 C6.06539383,6.87159836 6.25694379,7.23609245 6.3929206,7.62004982 C6.52889742,8.00400719 6.59629463,8.40329926 6.59452102,8.81792604 C6.59333861,9.26027324 6.51234372,9.62771632 6.35390117,9.91907567 C6.19486741,10.2110248 5.97612209,10.4298392 5.69648281,10.5755189 C5.41802593,10.7223782 5.08576953,10.7937435 4.70089601,10.789615 C4.31602249,10.7854864 3.89626796,10.7088129 3.44222362,10.5601842 C3.16021952,10.4675862 2.87880663,10.346678 2.59916734,10.1968697 C2.31893685,10.0476513 2.05112164,9.87071238 1.7963129,9.66723267 C1.54091297,9.46375295 1.30324913,9.2355018 1.0827302,8.983069 C0.862802479,8.73063619 0.672434932,8.45874011 0.51103636,8.16561137 C0.350820194,7.87307242 0.224893835,7.5593008 0.133848487,7.22547612 C0.0433943415,6.89106163 -0.00153712926,6.53954306 0.000236481425,6.17092039 L1.69344348,6.72591868 C1.69994672,7.03320253 1.74665181,7.30863739 1.83178512,7.55340284 C1.91691843,7.79816829 2.03634155,8.01580312 2.18828087,8.20335833 C2.34140259,8.39209313 2.5252669,8.55428711 2.73928259,8.68876066 C2.95448068,8.8244138 3.19096211,8.93352611 3.44813566,9.01786697 C3.67693144,9.0933609 3.88089667,9.12992827 4.05884894,9.12815888 C4.23739242,9.12697928 4.38755812,9.0933609 4.51111966,9.02730372 C4.63468121,8.96183633 4.72809137,8.86451995 4.79489737,8.73653416 C4.86052097,8.60795857 4.89421957,8.45461154 4.89481078,8.27472368" id="Fill-1"></path>
                        <polygon id="Fill-3" points="10.7554117 10.0095504 12.469902 3.31064441 14.3718039 3.93405907 11.6286194 13.1136482 9.87333598 12.5374172 7.21114634 1.58608012 9.1130482 2.20949478"></polygon>
                        <path d="M21.4756468,15.1661982 C21.3645005,15.2817982 21.2125612,15.386782 21.0198288,15.4799698 C20.8265053,15.5731576 20.5983007,15.6409842 20.3334415,15.6810903 C20.0697647,15.7211965 19.7735717,15.7265046 19.4466361,15.6976046 C19.1185182,15.6692944 18.7661608,15.5926209 18.3901554,15.4693534 C17.8829027,15.3024411 17.42472,15.0517777 17.0167895,14.7138244 C16.608859,14.3776406 16.2600489,13.9700913 15.9703592,13.4917666 C15.6812607,13.0140316 15.4595593,12.4720088 15.3040728,11.8645187 C15.1485862,11.2576183 15.0717298,10.6017649 15.0746858,9.89577872 L15.0800066,8.52686158 C15.0823714,7.82205504 15.1675048,7.21928326 15.3354066,6.71795643 C15.5033084,6.2172194 15.7338778,5.82028651 16.0277059,5.52951695 C16.3221253,5.23815759 16.6662058,5.05591055 17.061721,4.98218601 C17.4578274,4.90905128 17.8864499,4.94797783 18.3487711,5.10014527 C18.8518854,5.26469842 19.2899672,5.47997406 19.6647903,5.74597218 C20.0378397,6.0119703 20.3529512,6.32161334 20.6101248,6.6754911 C20.8667071,7.02995865 21.0665339,7.42453236 21.2107876,7.85921221 C21.35445,8.29448185 21.4478602,8.7610107 21.4910181,9.25938855 L19.8096351,8.70792904 C19.754062,8.17357362 19.6180852,7.73948356 19.3999311,7.40742827 C19.1823682,7.07537297 18.8436085,6.8335565 18.3854258,6.68315845 C18.1643156,6.61061351 17.9597592,6.60707473 17.7711653,6.67254212 C17.5825713,6.73741971 17.4188079,6.86953407 17.2781015,7.06829541 C17.1391686,7.26646696 17.02684,7.53364467 16.9434803,7.86805915 C16.8607118,8.20306343 16.8181451,8.60825347 16.8163715,9.08303946 L16.8110507,10.4655219 C16.8116419,11.4074266 16.9482099,12.1729821 17.2207547,12.7633682 C17.4927084,13.3537542 17.9112805,13.7430198 18.4758799,13.9329342 C18.6106743,13.9765791 18.7436951,14.0090179 18.8749423,14.029071 C19.0061895,14.0485342 19.1285686,14.0567914 19.2432621,14.0526628 C19.3579556,14.049124 19.4596426,14.0349689 19.547732,14.0107873 C19.6352301,13.9866056 19.7020361,13.9518077 19.74815,13.9069831 L19.7605652,12.0833331 L18.2819651,11.5985205 L18.287286,10.1464421 L21.4839236,11.1950999 L21.4756468,15.1661982 Z" id="Fill-5"></path>
                    </g>
                    <path d="M3.1033001,31.2765764 L0.147282291,30.3425723 L0.147282291,11.3608653 L46.7238213,0.0584052902 L89.6949153,11.4060304 L89.6949153,31.0386483 L86.1476939,31.9726524 L86.1476939,69.7863848 L46.7424474,83.7356078 L3.1033001,69.8547974 L3.1033001,31.2765764 Z M46.6655976,5.81730092 L5.74400935,15.7475066 L5.74400935,26.2556129 L8.70002716,27.189617 L8.70002716,65.7760877 L46.6469715,77.8463131 L80.5509668,65.8445003 L80.5509668,27.6731336 L84.0981882,26.7391295 L84.0981882,15.7023415 L46.6655976,5.81730092 Z" id="border" fill-rule="nonzero"></path>
                    <polygon id="line" fill-rule="nonzero" points="86.5393496 25.4872008 87.2537539 27.5722068 46.70925 41.3909286 2.61470277 27.5807924 3.27658888 25.4786153 46.6801689 39.0723449"></polygon>
                    <polygon id="line" fill-rule="nonzero" points="46.6808702 25.3762232 86.5564463 12.5060107 87.2366571 14.6023611 46.7085487 27.6831844 2.63078589 14.6101778 3.26050575 12.4981941"></polygon>
                    <polygon id="line" fill-rule="nonzero" points="47.7993266 80.7909605 45.5900923 80.7909605 45.5900923 26.5297038 47.7993266 26.5297038"></polygon>
                </g>
            </g>
        </g>
    </g>
</svg>